REM DIRINDEX 1\2,1\3,1\4,1\5
REM DIRNAME cjc044,folder01,folder02,folder03,folder04
TITLE ""
FILE "1800_124.mp3" MP3
  TRACK 01 AUDIO
    TITLE "2:cjc044_3625"
    INDEX 01 00:00:00
  TRACK 02 AUDIO
    TITLE "0:"
    INDEX 01 00:00:62
  TRACK 03 AUDIO
    TITLE "3:cjc044_3626"
    INDEX 01 00:01:50
  TRACK 04 AUDIO
    TITLE "0:"
    INDEX 01 00:02:59
  TRACK 05 AUDIO
    TITLE "4:cjc044_3627"
    INDEX 01 00:03:47
  TRACK 06 AUDIO
    TITLE "0:"
    INDEX 01 00:04:38
  TRACK 07 AUDIO
    TITLE "5:cjc044_3628"
    INDEX 01 00:05:22
  TRACK 08 AUDIO
    TITLE "0:"
    INDEX 01 00:08:05
  TRACK 09 AUDIO
    TITLE "2:cjc044_3629"
    INDEX 01 00:09:61
  TRACK 10 AUDIO
    TITLE "0:"
    INDEX 01 00:10:68
  TRACK 11 AUDIO
    TITLE "3:cjc044_3630"
    INDEX 01 00:11:56
  TRACK 12 AUDIO
    TITLE "0:"
    INDEX 01 00:12:44
  TRACK 13 AUDIO
    TITLE "4:cjc044_3631"
    INDEX 01 00:13:30
  TRACK 14 AUDIO
    TITLE "0:"
    INDEX 01 00:14:35
  TRACK 15 AUDIO
    TITLE "5:cjc044_3632"
    INDEX 01 00:15:19
  TRACK 16 AUDIO
    TITLE "0:"
    INDEX 01 00:18:44
  TRACK 17 AUDIO
    TITLE "2:cjc044_3633"
    INDEX 01 00:20:30
  TRACK 18 AUDIO
    TITLE "0:"
    INDEX 01 00:21:23
  TRACK 19 AUDIO
    TITLE "3:cjc044_3634"
    INDEX 01 00:22:21
  TRACK 20 AUDIO
    TITLE "0:"
    INDEX 01 00:23:12
  TRACK 21 AUDIO
    TITLE "4:cjc044_3635"
    INDEX 01 00:23:73
  TRACK 22 AUDIO
    TITLE "0:"
    INDEX 01 00:24:65
  TRACK 23 AUDIO
    TITLE "5:cjc044_3636"
    INDEX 01 00:25:68
  TRACK 24 AUDIO
    TITLE "0:"
    INDEX 01 00:28:60
  TRACK 25 AUDIO
    TITLE "2:cjc044_3637"
    INDEX 01 00:30:50
  TRACK 26 AUDIO
    TITLE "0:"
    INDEX 01 00:32:29
  TRACK 27 AUDIO
    TITLE "3:cjc044_3638"
    INDEX 01 00:33:13
  TRACK 28 AUDIO
    TITLE "0:"
    INDEX 01 00:34:45
  TRACK 29 AUDIO
    TITLE "4:cjc044_3639"
    INDEX 01 00:35:31
  TRACK 30 AUDIO
    TITLE "0:"
    INDEX 01 00:37:08
  TRACK 31 AUDIO
    TITLE "5:cjc044_3640"
    INDEX 01 00:37:67
  TRACK 32 AUDIO
    TITLE "0:"
    INDEX 01 00:41:08
  TRACK 33 AUDIO
    TITLE "2:cjc044_3641"
    INDEX 01 00:43:01
  TRACK 34 AUDIO
    TITLE "0:"
    INDEX 01 00:44:05
  TRACK 35 AUDIO
    TITLE "3:cjc044_3642"
    INDEX 01 00:44:65
  TRACK 36 AUDIO
    TITLE "0:"
    INDEX 01 00:46:11
  TRACK 37 AUDIO
    TITLE "4:cjc044_3643"
    INDEX 01 00:46:68
  TRACK 38 AUDIO
    TITLE "0:"
    INDEX 01 00:47:74
  TRACK 39 AUDIO
    TITLE "5:cjc044_3644"
    INDEX 01 00:48:59
  TRACK 40 AUDIO
    TITLE "0:"
    INDEX 01 00:52:20
  TRACK 41 AUDIO
    TITLE "2:cjc044_3645"
    INDEX 01 00:54:09
  TRACK 42 AUDIO
    TITLE "0:"
    INDEX 01 00:55:06
  TRACK 43 AUDIO
    TITLE "3:cjc044_3646"
    INDEX 01 00:55:65
  TRACK 44 AUDIO
    TITLE "0:"
    INDEX 01 00:56:53
  TRACK 45 AUDIO
    TITLE "4:cjc044_3647"
    INDEX 01 00:57:43
  TRACK 46 AUDIO
    TITLE "0:"
    INDEX 01 00:58:38
  TRACK 47 AUDIO
    TITLE "5:cjc044_3648"
    INDEX 01 00:59:18
  TRACK 48 AUDIO
    TITLE "0:"
    INDEX 01 01:02:06
  TRACK 49 AUDIO
    TITLE "2:cjc044_3649"
    INDEX 01 01:03:59
  TRACK 50 AUDIO
    TITLE "0:"
    INDEX 01 01:04:68
  TRACK 51 AUDIO
    TITLE "3:cjc044_3650"
    INDEX 01 01:05:52
  TRACK 52 AUDIO
    TITLE "0:"
    INDEX 01 01:06:59
  TRACK 53 AUDIO
    TITLE "4:cjc044_3651"
    INDEX 01 01:07:45
  TRACK 54 AUDIO
    TITLE "0:"
    INDEX 01 01:08:56
  TRACK 55 AUDIO
    TITLE "5:cjc044_3652"
    INDEX 01 01:09:40
  TRACK 56 AUDIO
    TITLE "0:"
    INDEX 01 01:12:36
  TRACK 57 AUDIO
    TITLE "2:cjc044_3653"
    INDEX 01 01:14:29
  TRACK 58 AUDIO
    TITLE "0:"
    INDEX 01 01:15:33
  TRACK 59 AUDIO
    TITLE "3:cjc044_3654"
    INDEX 01 01:16:22
  TRACK 60 AUDIO
    TITLE "0:"
    INDEX 01 01:18:29
  TRACK 61 AUDIO
    TITLE "4:cjc044_3655"
    INDEX 01 01:19:17
  TRACK 62 AUDIO
    TITLE "0:"
    INDEX 01 01:20:20
  TRACK 63 AUDIO
    TITLE "5:cjc044_3656"
    INDEX 01 01:21:04
  TRACK 64 AUDIO
    TITLE "0:"
    INDEX 01 01:24:08
  TRACK 65 AUDIO
    TITLE "2:cjc044_3657"
    INDEX 01 01:25:68
  TRACK 66 AUDIO
    TITLE "0:"
    INDEX 01 01:26:72
  TRACK 67 AUDIO
    TITLE "3:cjc044_3658"
    INDEX 01 01:27:55
  TRACK 68 AUDIO
    TITLE "0:"
    INDEX 01 01:28:57
  TRACK 69 AUDIO
    TITLE "4:cjc044_3659"
    INDEX 01 01:29:43
  TRACK 70 AUDIO
    TITLE "0:"
    INDEX 01 01:30:50
  TRACK 71 AUDIO
    TITLE "5:cjc044_3660"
    INDEX 01 01:31:38
  TRACK 72 AUDIO
    TITLE "0:"
    INDEX 01 01:35:29
